<?xml version="1.0" encoding="UTF-8" standalone="no"?>
<!-- Created with Inkscape (http://www.inkscape.org/) -->

<svg
   width="8.4666834mm"
   height="8.4666662mm"
   viewBox="0 0 8.4666834 8.4666662"
   version="1.1"
   id="svg1"
   xmlns="http://www.w3.org/2000/svg"
   xmlns:svg="http://www.w3.org/2000/svg">
  <defs
     id="defs1" />
  <g
     id="layer1"
     transform="translate(-144.20693,-51.224503)">
    <path
       id="rect1"
       style="fill:#ffffff;fill-opacity:0.996078;stroke:#008080;stroke-width:0.0454124;stroke-linecap:square;stroke-miterlimit:4.7;stroke-dasharray:none;stroke-opacity:1;paint-order:markers stroke fill"
       d="m 145.35619,51.247207 c -0.62408,0 -1.12655,0.526378 -1.12655,1.180161 v 6.060933 c 0,0.653783 0.50247,1.18016 1.12655,1.18016 h 6.16817 c 0.62408,0 1.12654,-0.526377 1.12654,-1.18016 v -6.060933 c 0,-0.653783 -0.50246,-1.180161 -1.12654,-1.180161 z m 0.37754,1.210586 0.0744,0.01281 c 0.0138,0 0.0319,-10e-4 0.054,-0.0032 h 0.0245 c 0.0303,0 0.0569,0.0087 0.079,0.02562 0.0221,0.02122 0.0331,0.04122 0.0331,0.06032 l -0.009,0.108356 v 0.159062 c -0.0248,0.108212 -0.0372,0.177396 -0.0372,0.207101 0,0.04244 0.008,0.104603 0.025,0.187353 l -0.1284,0.124368 -0.11159,-0.01601 0.0163,0.08593 v 0.09874 l 0.025,0.05712 h 0.0209 l 0.0785,-0.0443 c 0.0303,0.03182 0.0454,0.05723 0.0454,0.07633 0,0.0064 -0.003,0.0188 -0.008,0.0379 -0.008,0.0191 -0.0122,0.0353 -0.0122,0.04804 l 0.0122,0.639454 -0.008,0.133975 c -0.003,0.150647 -0.0112,0.230107 -0.025,0.238595 l -0.0994,0.06992 c -0.0138,0.01061 -0.0204,0.02574 -0.0204,0.04484 0,0.03182 0.03,0.06859 0.0907,0.111023 0.008,0.04456 0.0304,0.09483 0.0662,0.14999 l -0.0331,0.111023 0.0127,0.101954 -0.009,0.162265 c 0.011,0.110334 0.0168,0.193035 0.0168,0.248201 l 0.0581,0.02242 v 0.06032 l 0.0285,0.02241 c 0.12688,-0.04031 0.19897,-0.06572 0.21553,-0.07633 0.15999,-0.08912 0.26341,-0.14425 0.31029,-0.165468 l 0.0204,0.0096 0.12433,-0.11476 0.61651,-0.496405 0.0581,-0.101954 0.43002,-0.423278 c 0.0441,-0.04456 0.0954,-0.08672 0.15336,-0.127037 0.0414,-0.03395 0.11165,-0.100973 0.21095,-0.200697 l -0.0499,-0.05712 v -0.0032 c 0.0441,-0.07426 0.15334,-0.191018 0.32711,-0.350152 l 0.0703,-0.01601 c 0.008,-0.04031 0.037,-0.09004 0.0866,-0.149455 l 0.0831,-0.108355 0.0703,-0.07953 0.11158,-0.15586 c 0.08,-0.06153 0.14894,-0.130717 0.20686,-0.207102 0.0607,-0.07851 0.10753,-0.137965 0.14063,-0.178278 0.0745,-0.0085 0.12,-0.01768 0.13654,-0.02829 l 0.0912,-0.05444 c 0.08,-0.04456 0.12419,-0.06888 0.13247,-0.07313 0.006,-0.0042 0.0263,-0.0074 0.0622,-0.0096 0.0276,0 0.0647,-0.01459 0.11158,-0.0443 0.0579,-0.03607 0.1074,-0.05444 0.14878,-0.05444 l 0.0331,0.04484 v 0.0032 c 0,0.01273 -0.0287,0.05057 -0.0866,0.114225 -0.0552,0.087 -0.0844,0.132935 -0.0871,0.137179 l -0.13247,0.08593 c -0.12137,0.118821 -0.19163,0.190714 -0.21094,0.216175 -0.0386,0.06154 -0.0757,0.109637 -0.11158,0.143585 l -0.25273,-0.01922 -0.0122,0.139848 0.0703,0.02241 c 0,0.05305 -0.0163,0.09629 -0.0494,0.130239 -0.0248,0.02759 -0.0677,0.0638 -0.1284,0.108355 -0.008,0.0297 -0.0233,0.05187 -0.0454,0.06672 l -0.0912,0.07633 -0.13248,0.07687 c -0.0359,0.07638 -0.0567,0.11855 -0.0622,0.127037 -0.006,0.0064 -0.0316,0.02149 -0.0785,0.04484 0,0.04031 -0.006,0.06681 -0.0168,0.07953 -0.011,0.01697 -0.0547,0.04941 -0.13197,0.09821 -0.13792,0.10609 -0.29265,0.250412 -0.46366,0.432886 l -0.22316,0.187886 c -0.11585,0.118821 -0.20031,0.198281 -0.25272,0.238594 l -0.0291,0.08914 c -0.0662,0.0297 -0.10594,0.05132 -0.11973,0.06405 -0.0138,0.01061 -0.0593,0.06574 -0.13655,0.165468 -0.0772,0.0382 -0.12144,0.06144 -0.13247,0.06992 -0.011,0.0085 -0.026,0.03606 -0.0453,0.08273 l -0.11158,0.0096 c -0.0276,0.02759 -0.0457,0.04542 -0.054,0.05391 -0.0414,0.03607 -0.0622,0.05823 -0.0622,0.06672 0,0.0022 10e-4,0.0054 0.004,0.0096 l 0.004,0.01281 0.39334,0.362962 c 0.0855,0.07638 0.1284,0.145036 0.1284,0.206569 0,0.01273 -0.002,0.02894 -0.005,0.04804 0.0607,0 0.1049,0.0022 0.13248,0.0064 0.0303,0.0064 0.079,0.0361 0.14521,0.08914 0.0662,0.0488 0.11305,0.09421 0.14063,0.136645 0.0359,0.0022 0.0672,0.01077 0.0948,0.02562 0.10481,0.05941 0.15744,0.109141 0.15744,0.149455 0,0.02121 -0.0124,0.04771 -0.0372,0.07953 0.0414,0.0297 0.10322,0.0616 0.18596,0.09554 l 0.12025,0.06352 0.0953,0.01921 c 0.008,-0.0085 0.0396,0.01367 0.0948,0.06672 h 0.0871 c 0.0827,0.07215 0.20248,0.152682 0.35972,0.241797 l 0.52173,0.286634 0.13197,0.05712 c -0.003,0.0191 -0.004,0.03639 -0.004,0.05124 0,0.03607 0.0221,0.05715 0.0662,0.06352 0.0469,0.0064 0.084,0.01393 0.11159,0.02242 v 0.05712 c 0.0138,0.0085 0.0527,0.01821 0.11616,0.02883 0.0579,0.01697 0.1282,0.03157 0.21094,0.0443 0.0717,0.01273 0.13539,0.03922 0.19055,0.07953 0.30619,0.14216 0.46304,0.216749 0.47131,0.223115 0.0193,0.01273 0.0348,0.04462 0.0459,0.09554 0.08,0.01485 0.15025,0.03593 0.21094,0.06352 l 0.0866,-0.05712 c 0.0662,0.02334 0.15462,0.04334 0.26495,0.06032 0.11033,0.01698 0.20402,0.02562 0.28125,0.02562 h 0.0168 l 0.28941,-0.03203 c 0.006,0 0.0179,0.0087 0.0372,0.02562 l 0.0127,0.02509 c 0.0166,0.09761 -0.11211,0.168948 -0.38518,0.213506 l -0.0662,0.06672 c -0.08,0.0042 -0.13211,0.01073 -0.15693,0.01922 -0.008,0.0022 -0.0512,0.02104 -0.12839,0.05712 l -0.0912,-0.0096 c -0.0772,-0.0064 -0.12093,-0.01069 -0.13196,-0.01281 -0.008,-0.0022 -0.0304,-0.01348 -0.0662,-0.03469 l -0.14928,0.01601 c -0.08,-0.05092 -0.13921,-0.08606 -0.17783,-0.105151 -0.0248,-0.01485 -0.0977,-0.04458 -0.21908,-0.08914 -0.0717,-0.03182 -0.13094,-0.05291 -0.17783,-0.06352 -0.0358,-0.0064 -0.0937,-0.02798 -0.17374,-0.06405 -0.091,-0.04243 -0.14497,-0.0646 -0.16153,-0.06672 -0.0772,-0.02759 -0.12143,-0.04651 -0.13245,-0.05712 l -0.0912,-0.07633 -0.0662,-0.02562 c -0.0579,-0.04456 -0.11267,-0.07645 -0.16509,-0.09554 0.008,-0.0297 0.0122,-0.05511 0.0122,-0.07633 0,-0.01485 -0.006,-0.02783 -0.0168,-0.03843 -0.0359,-0.03182 -0.0866,-0.0475 -0.15284,-0.0475 -0.0138,0 -0.0717,0.01297 -0.17375,0.03843 -0.006,0.0022 -0.009,0.0032 -0.0122,0.0032 -0.0524,0 -0.0998,-0.02757 -0.14113,-0.08273 -0.008,-0.01274 -0.022,-0.05219 -0.0413,-0.117964 -0.006,-0.02121 -0.0232,-0.04014 -0.0535,-0.05712 -0.0221,-0.01273 -0.0402,-0.01921 -0.054,-0.01921 l -0.10344,0.01281 h -0.0163 c -0.0442,0 -0.14097,-0.0427 -0.28992,-0.12757 -0.0469,-0.02759 -0.16663,-0.09732 -0.35972,-0.209772 l -0.19056,-0.15319 c -0.0469,-0.03607 -0.073,-0.05715 -0.0785,-0.06352 -0.0248,-0.02334 -0.0651,-0.04334 -0.12025,-0.06032 -0.10481,-0.05517 -0.23297,-0.117867 -0.38468,-0.187886 0.0165,-0.05305 0.036,-0.100612 0.0581,-0.14305 -0.11034,-0.03607 -0.17665,-0.05444 -0.19872,-0.05444 -0.0165,0 -0.0373,0.001 -0.0622,0.0032 -0.0414,-0.0297 -0.098,-0.06647 -0.16967,-0.111024 l -0.17374,-0.149988 c -0.0579,-0.04456 -0.0924,-0.07321 -0.10343,-0.08593 -0.0165,-0.02122 -0.0355,-0.05582 -0.0576,-0.104619 -0.0607,0 -0.10489,-0.0043 -0.13247,-0.01281 -0.0331,-0.01061 -0.10205,-0.05655 -0.20687,-0.137179 -0.0386,-0.02759 -0.0828,-0.0411 -0.13247,-0.0411 -0.0386,0 -0.0718,0.0097 -0.0994,0.02883 -0.0248,0.0191 -0.0372,0.04234 -0.0372,0.06992 v 0.02189 l 0.0994,-0.0059 v 0.06032 c 0,0.0191 -0.006,0.05694 -0.0168,0.114227 -0.003,0.01697 -0.004,0.03427 -0.004,0.05124 0,0.01485 0.008,0.08351 0.025,0.206568 v 0.117962 l 0.004,0.101954 c 0,0.01697 -0.008,0.03158 -0.025,0.0443 -0.0276,0.02121 -0.0426,0.03743 -0.0454,0.04804 -0.008,0.02546 -0.0206,0.05627 -0.0372,0.09234 0.0579,0.0042 0.099,0.01668 0.12381,0.0379 -0.0276,0.087 -0.0413,0.242124 -0.0413,0.464912 -0.003,0.04031 -0.0191,0.06032 -0.0494,0.06032 -0.0276,0 -0.0607,-0.01568 -0.0994,-0.0475 h -0.0372 c -0.0138,0.01061 -0.0209,0.02088 -0.0209,0.03149 0,0.07851 0.065,0.119044 0.19462,0.121166 0.011,0.02334 0.0181,0.07739 0.0209,0.162265 l 0.004,0.05712 c -0.003,0.02334 -0.0222,0.05523 -0.0581,0.09554 l -0.0825,0.03843 0.0372,0.08593 c 0.0414,-0.0297 0.0727,-0.04484 0.0948,-0.04484 0.0303,0 0.0459,0.05026 0.0459,0.149989 -0.003,0.01697 0.003,0.0413 0.0163,0.07313 0.011,0.03183 0.0168,0.05616 0.0168,0.07313 0,0.0042 -10e-4,0.01235 -0.004,0.02509 -0.0772,0.03395 -0.12723,0.07232 -0.14929,0.114759 -0.091,0 -0.16392,0.02001 -0.2191,0.06032 l 0.0163,0.04163 c -0.11033,0.02759 -0.19032,0.05515 -0.23998,0.08273 -0.0855,0.05305 -0.14026,0.07953 -0.16508,0.07953 -0.0303,0 -0.068,-0.0065 -0.11208,-0.01921 0.0165,-0.05728 0.025,-0.09513 0.025,-0.114227 v -0.0096 -0.03203 l -0.004,-0.01922 0.43463,-0.190555 -0.40151,-0.16867 0.0372,-0.02242 c 0.0552,-0.03395 0.0812,-0.06692 0.0785,-0.09875 l -0.0122,-0.130773 0.3434,-0.136644 -0.31029,-0.130239 0.0122,-0.117963 -0.004,-0.305315 0.008,-0.07366 c -0.0331,-0.05729 -0.0494,-0.09081 -0.0494,-0.101417 0,-0.01485 0.003,-0.03214 0.008,-0.05124 0.0414,-0.118821 0.0622,-0.18423 0.0622,-0.19696 l 0.025,-0.484127 0.22317,-0.187888 c -0.11309,-0.0488 -0.1944,-0.09421 -0.24405,-0.136644 l 0.0291,-0.02241 h 0.0331 l 0.029,0.02241 h 0.0163 v -0.02563 c 0.0441,-0.03395 0.0702,-0.06963 0.0785,-0.10782 l -0.13197,0.01227 c -0.0276,-0.163377 -0.0418,-0.293649 -0.0418,-0.391252 l 0.0209,-0.175076 v -0.0032 l -0.008,-0.11743 0.0122,-0.05444 c 0,-0.09761 0.007,-0.154899 0.0209,-0.171873 0.0248,-0.02759 0.0372,-0.05407 0.0372,-0.07953 l -0.12432,-0.0475 c 0.0221,-0.04031 0.0344,-0.09869 0.0372,-0.175075 l 0.004,-0.08914 -0.0122,-0.101954 c 0,-0.118821 -0.003,-0.193958 -0.008,-0.225785 -0.011,-0.03395 -0.0331,-0.07016 -0.0662,-0.108354 0.0193,-0.03607 0.0317,-0.06039 0.0372,-0.07313 0.011,-0.02546 0.0247,-0.04708 0.0413,-0.06405 -0.0165,-0.02546 -0.025,-0.05466 -0.025,-0.0886 0.0303,-0.0191 0.0635,-0.03207 0.0994,-0.03843 v -0.136645 c -0.0386,0.02758 -0.0744,0.04218 -0.1075,0.0443 -0.011,-0.03182 -0.0195,-0.101014 -0.025,-0.207102 -0.011,-0.14216 -0.0247,-0.25351 -0.0413,-0.334138 0.0359,-0.02758 0.0593,-0.05623 0.0703,-0.08593 -0.0745,-0.05092 -0.11158,-0.101737 -0.11158,-0.152656 0,-0.02759 0.007,-0.06867 0.0209,-0.123835 -0.14895,-0.01061 -0.22631,-0.03709 -0.23183,-0.07953 l -0.004,-0.01921 0.42187,-0.226317 0.0331,0.0064 c 0.11309,-0.05729 0.20282,-0.111343 0.26901,-0.162265 z" />
  </g>
</svg>
