<?xml version="1.0" encoding="UTF-8" standalone="no"?>
<!-- Created with Inkscape (http://www.inkscape.org/) -->

<svg
   width="154mm"
   height="32.000015mm"
   viewBox="0 0 154 32.000015"
   version="1.1"
   id="svg1"
   xmlns="http://www.w3.org/2000/svg"
   xmlns:svg="http://www.w3.org/2000/svg">
  <defs
     id="defs1" />
  <g
     id="layer1"
     transform="translate(-71.5,-77.504844)">
    <path
       id="rect1"
       style="fill:#ffffff;fill-opacity:0.996078;stroke:#008080;stroke-width:0.171685;stroke-linecap:square;stroke-miterlimit:4.7;stroke-dasharray:none;stroke-opacity:1;paint-order:markers stroke fill"
       d="m 75.846002,77.590687 c -2.360046,0 -4.260166,1.989452 -4.260166,4.460443 v 22.90745 c 0,2.47098 1.90012,4.46044 4.260166,4.46044 h 23.325793 c 2.360045,0 4.260165,-1.98946 4.260165,-4.46044 V 82.05113 c 0,-2.470991 -1.90012,-4.460443 -4.260165,-4.460443 z m 1.427747,4.575436 0.281327,0.04842 c 0.05213,0 0.120767,-0.0039 0.204204,-0.01217 h 0.09255 c 0.114724,0 0.21517,0.03257 0.298657,0.09684 0.08345,0.08021 0.12525,0.155783 0.12525,0.227984 l -0.03272,0.409531 v 0.601177 c -0.09385,0.408993 -0.140649,0.670479 -0.140649,0.782749 0,0.160373 0.03182,0.395349 0.09445,0.708102 l -0.485571,0.470054 -0.421955,-0.06051 0.06163,0.324789 v 0.373209 l 0.09435,0.215859 h 0.07904 l 0.296715,-0.167437 c 0.114724,0.12031 0.171476,0.21633 0.171476,0.288492 0,0.02394 -0.01001,0.07106 -0.03082,0.143225 -0.03132,0.07216 -0.04623,0.133455 -0.04623,0.181563 l 0.04623,2.416828 -0.03082,0.506364 c -0.01041,0.569373 -0.04222,0.869697 -0.09435,0.901777 l -0.37574,0.264279 c -0.05213,0.0401 -0.07704,0.0973 -0.07704,0.16948 0,0.12027 0.113494,0.25921 0.342992,0.41961 0.03132,0.16842 0.114884,0.35838 0.250479,0.566889 l -0.12524,0.41962 0.04823,0.38533 -0.03272,0.613289 c 0.04172,0.417009 0.06354,0.729579 0.06354,0.938079 l 0.219682,0.0847 v 0.22798 l 0.10787,0.0847 c 0.479838,-0.15236 0.75247,-0.24838 0.815065,-0.28849 0.605007,-0.33683 0.996096,-0.5452 1.173385,-0.62539 l 0.07714,0.0365 0.470142,-0.433739 2.3314,-1.876168 0.219653,-0.38534 1.626217,-1.599785 c 0.166903,-0.168418 0.360932,-0.327771 0.579994,-0.480139 0.156447,-0.128315 0.422145,-0.381607 0.797685,-0.758534 l -0.188856,-0.215858 v -0.01217 c 0.166933,-0.280681 0.579874,-0.721957 1.23704,-1.32341 l 0.265879,-0.06051 c 0.03132,-0.152369 0.139788,-0.340328 0.327562,-0.56487 l 0.314056,-0.40953 0.265918,-0.300578 0.421975,-0.589079 c 0.302489,-0.232575 0.563225,-0.494046 0.782247,-0.782746 0.229498,-0.296731 0.406647,-0.521438 0.531806,-0.673806 0.281658,-0.03218 0.453804,-0.06683 0.516379,-0.106929 L 91.1682,83.14058 c 0.302499,-0.168417 0.469652,-0.260355 0.500929,-0.276404 0.02081,-0.01609 0.09946,-0.02825 0.235092,-0.03649 0.104288,0 0.244626,-0.05517 0.421965,-0.167436 0.219052,-0.136319 0.406157,-0.205774 0.562634,-0.205774 l 0.12525,0.169477 v 0.01216 c 0,0.04811 -0.108541,0.191138 -0.327563,0.431717 -0.208646,0.32879 -0.319048,0.502431 -0.329484,0.518472 l -0.500979,0.324789 c -0.458946,0.449079 -0.724685,0.720808 -0.797695,0.817039 -0.146042,0.232574 -0.28636,0.414369 -0.421966,0.542679 l -0.955703,-0.07263 -0.04623,0.528557 0.265889,0.08472 c 0,0.200476 -0.06164,0.363949 -0.186885,0.49224 -0.09395,0.10426 -0.256072,0.241129 -0.48557,0.409531 -0.03122,0.112265 -0.08805,0.196042 -0.171476,0.252154 l -0.344892,0.288492 -0.50098,0.290493 c -0.135606,0.288687 -0.214199,0.448063 -0.235041,0.480142 -0.02081,0.02394 -0.119437,0.08127 -0.296756,0.169477 0,0.152368 -0.02181,0.252469 -0.06354,0.300577 -0.04172,0.06416 -0.206976,0.186743 -0.499038,0.371209 -0.521551,0.400968 -1.106678,0.946434 -1.753399,1.636098 l -0.84393,0.710119 c -0.438105,0.44909 -0.757503,0.749409 -0.955674,0.901779 l -0.109841,0.33691 c -0.250339,0.11226 -0.400633,0.19396 -0.452802,0.24207 -0.05223,0.0401 -0.224316,0.248469 -0.516378,0.625389 -0.292053,0.14433 -0.459237,0.23219 -0.50096,0.26428 -0.04172,0.0322 -0.09846,0.13628 -0.171486,0.312709 l -0.421965,0.0365 c -0.104318,0.10426 -0.172966,0.17167 -0.204254,0.20377 -0.156447,0.13632 -0.235081,0.2201 -0.235081,0.25215 0,0.008 0.005,0.0204 0.01551,0.0365 l 0.01541,0.0484 1.48748,1.371828 c 0.32338,0.28869 0.485571,0.54817 0.485571,0.78073 0,0.0481 -0.007,0.1094 -0.01731,0.18156 0.229448,0 0.396641,0.008 0.50097,0.0243 0.114724,0.0239 0.298766,0.13644 0.549106,0.33692 0.25037,0.18442 0.427518,0.35606 0.531807,0.51645 0.135605,0.008 0.254061,0.0407 0.35839,0.0968 0.396391,0.224529 0.595382,0.412499 0.595382,0.564869 0,0.0802 -0.04683,0.18031 -0.140649,0.30058 0.156458,0.11226 0.390348,0.232809 0.703253,0.361119 l 0.454743,0.24007 0.360331,0.0726 c 0.03132,-0.0322 0.149734,0.0517 0.35835,0.25216 h 0.329494 c 0.312945,0.272679 0.765737,0.577059 1.360339,0.913869 l 1.973021,1.08335 0.499068,0.21586 c -0.01051,0.0722 -0.01551,0.13753 -0.01551,0.19364 0,0.13632 0.08365,0.21602 0.25048,0.24007 0.177339,0.0239 0.317687,0.0527 0.421975,0.0847 v 0.21586 c 0.05223,0.0322 0.199402,0.0688 0.439295,0.10893 0.219053,0.0642 0.484791,0.11933 0.797695,0.16744 0.271222,0.0481 0.512016,0.14821 0.720622,0.30058 1.157866,0.5373 1.751017,0.81921 1.782305,0.84327 0.07304,0.0481 0.131693,0.16865 0.173416,0.36112 0.302489,0.0562 0.568187,0.13581 0.797685,0.24007 l 0.327563,-0.21586 c 0.25033,0.0882 0.584676,0.16383 1.001939,0.22799 0.417233,0.0642 0.77152,0.0968 1.063573,0.0968 h 0.06354 l 1.094425,-0.12106 c 0.0208,0 0.0676,0.0326 0.14063,0.0968 l 0.0482,0.0948 c 0.0625,0.3689 -0.42397,0.63855 -1.456632,0.80696 l -0.2505,0.25215 c -0.302498,0.0161 -0.499578,0.0405 -0.593471,0.0726 -0.03122,0.008 -0.193478,0.0795 -0.485541,0.21586 l -0.344892,-0.0365 c -0.292053,-0.0239 -0.457305,-0.0404 -0.499028,-0.0484 -0.03132,-0.008 -0.114884,-0.0509 -0.25049,-0.13114 l -0.564545,0.0605 c -0.302499,-0.19247 -0.526444,-0.32526 -0.672495,-0.39743 -0.09375,-0.0562 -0.369526,-0.16849 -0.828482,-0.33691 -0.271222,-0.12031 -0.495157,-0.19997 -0.672495,-0.24007 -0.135556,-0.0239 -0.354508,-0.10575 -0.657017,-0.24207 -0.344212,-0.16037 -0.548196,-0.24415 -0.610811,-0.25216 -0.292053,-0.10426 -0.459206,-0.17575 -0.500929,-0.21585 l -0.344933,-0.2885 -0.250459,-0.0968 c -0.219042,-0.16841 -0.426098,-0.28892 -0.624299,-0.36112 0.03132,-0.11227 0.04633,-0.20829 0.04633,-0.28849 0,-0.0562 -0.02191,-0.10516 -0.06354,-0.14527 -0.135596,-0.12027 -0.327663,-0.17956 -0.578033,-0.17956 -0.05213,0 -0.271071,0.049 -0.657016,0.14527 -0.02081,0.008 -0.03582,0.0122 -0.04633,0.0122 -0.198171,0 -0.37725,-0.10419 -0.533708,-0.31271 -0.03132,-0.0481 -0.08305,-0.19722 -0.156077,-0.44584 -0.02081,-0.0802 -0.08755,-0.1517 -0.202313,-0.21586 -0.08345,-0.0481 -0.152094,-0.0726 -0.204214,-0.0726 l -0.391168,0.0484 h -0.06163 c -0.166933,0 -0.533068,-0.16139 -1.096352,-0.48215 -0.177329,-0.10426 -0.630161,-0.3678 -1.360329,-0.79284 l -0.720622,-0.57899 c -0.177339,-0.13632 -0.275884,-0.21602 -0.296725,-0.24007 -0.09395,-0.0882 -0.246127,-0.163829 -0.454744,-0.227939 -0.396341,-0.20853 -0.881021,-0.44549 -1.454701,-0.71013 0.06253,-0.200479 0.136196,-0.380269 0.219652,-0.540659 -0.417273,-0.13632 -0.668022,-0.20577 -0.751469,-0.20577 -0.06253,0 -0.141199,0.004 -0.235081,0.0122 -0.156447,-0.11227 -0.370397,-0.25122 -0.641618,-0.41962 l -0.657013,-0.56688 c -0.219012,-0.16842 -0.349405,-0.27668 -0.391128,-0.32479 -0.06254,-0.0802 -0.134265,-0.210959 -0.217721,-0.395409 -0.229478,0 -0.396682,-0.0165 -0.50096,-0.0484 -0.12518,-0.0401 -0.385905,-0.21374 -0.782306,-0.51847 -0.146002,-0.10426 -0.313195,-0.15535 -0.50096,-0.15535 -0.146011,0 -0.271411,0.0369 -0.375739,0.10893 -0.09375,0.0722 -0.140629,0.16002 -0.140629,0.26428 v 0.0827 l 0.37572,-0.0224 v 0.22798 c 0,0.0722 -0.02181,0.2152 -0.06354,0.431719 -0.01051,0.0642 -0.01551,0.12953 -0.01551,0.19369 0,0.0562 0.03182,0.31561 0.09445,0.780729 v 0.44584 l 0.01551,0.38534 c 0,0.0642 -0.03182,0.119329 -0.09435,0.167429 -0.104319,0.0802 -0.16107,0.14146 -0.171516,0.18157 -0.03122,0.0962 -0.07804,0.21268 -0.140629,0.349 0.219043,0.0161 0.374339,0.063 0.468192,0.14322 -0.104289,0.328789 -0.156047,0.91512 -0.156047,1.75715 -0.01051,0.15237 -0.07214,0.22799 -0.186915,0.22799 -0.104318,0 -0.229678,-0.0593 -0.375729,-0.17957 h -0.140639 c -0.05223,0.0401 -0.07904,0.0789 -0.07904,0.11902 0,0.29673 0.245777,0.44993 0.736021,0.45795 0.04172,0.0882 0.06854,0.29249 0.07904,0.61328 l 0.01551,0.21586 c -0.0105,0.0882 -0.08415,0.20876 -0.219702,0.36112 l -0.312114,0.14527 0.140648,0.32479 c 0.156478,-0.11227 0.274944,-0.16948 0.35838,-0.16948 0.114734,0 0.173417,0.18996 0.173417,0.56688 -0.01051,0.0642 0.01001,0.1561 0.06163,0.27641 0.04172,0.12031 0.06354,0.21221 0.06354,0.27637 0,0.0161 -0.005,0.0467 -0.01541,0.0948 -0.292093,0.12831 -0.481138,0.27334 -0.564585,0.43373 -0.344222,0 -0.619886,0.0756 -0.828532,0.22798 l 0.06163,0.15736 c -0.417222,0.10426 -0.719771,0.20844 -0.907546,0.3127 -0.32333,0.20047 -0.530376,0.30058 -0.624268,0.30058 -0.114734,0 -0.256973,-0.0243 -0.423867,-0.0726 0.06253,-0.21653 0.09435,-0.35956 0.09435,-0.43173 v -0.0365 -0.12105 l -0.01551,-0.0726 1.643557,-0.72021 -1.518317,-0.63749 0.140679,-0.0847 c 0.208616,-0.12832 0.307161,-0.25294 0.296725,-0.37321 l -0.04623,-0.49427 1.298625,-0.51645 -1.173415,-0.49224 0.04633,-0.44584 -0.01541,-1.15395 0.03082,-0.27841 c -0.12516,-0.216521 -0.186874,-0.343191 -0.186874,-0.38329 0,-0.0562 0.01,-0.12149 0.03082,-0.19369 0.156487,-0.44908 0.235081,-0.6963 0.235081,-0.74441 l 0.09445,-1.829778 0.84393,-0.710119 c -0.427668,-0.18443 -0.73517,-0.35606 -0.922935,-0.516449 l 0.109842,-0.0847 h 0.12525 l 0.109801,0.0847 h 0.06163 v -0.0968 c 0.166883,-0.12832 0.265428,-0.26314 0.296716,-0.40751 l -0.499029,0.0464 c -0.104328,-0.617489 -0.157988,-1.109859 -0.157988,-1.478749 l 0.07894,-0.661699 v -0.0122 l -0.03082,-0.443819 0.04633,-0.20578 c 0,-0.36889 0.02681,-0.58544 0.07894,-0.6496 0.09395,-0.104259 0.140678,-0.204359 0.140678,-0.300569 L 75.7559,91.393388 c 0.08345,-0.15236 0.130203,-0.37301 0.140649,-0.661699 l 0.01551,-0.33692 -0.04633,-0.385332 c 0,-0.449084 -0.01,-0.733062 -0.03082,-0.853352 -0.04172,-0.128315 -0.12528,-0.265182 -0.250449,-0.40953 0.07304,-0.13632 0.119756,-0.228259 0.140648,-0.276367 0.04172,-0.09622 0.09345,-0.177953 0.156067,-0.24211 -0.06253,-0.09622 -0.09445,-0.206558 -0.09445,-0.334872 0.114734,-0.07216 0.240114,-0.121212 0.37569,-0.145266 v -0.516452 c -0.146011,0.104261 -0.281357,0.159432 -0.406527,0.167437 -0.04172,-0.12027 -0.07354,-0.381765 -0.09435,-0.782744 -0.04172,-0.5373 -0.09345,-0.958151 -0.156088,-1.262888 0.135616,-0.10426 0.224166,-0.212523 0.265889,-0.324788 -0.281617,-0.192471 -0.421956,-0.384511 -0.421956,-0.57697 0,-0.104261 0.02681,-0.259533 0.07904,-0.468038 -0.563275,-0.0401 -0.855858,-0.140203 -0.87671,-0.300576 l -0.01541,-0.07263 1.59538,-0.855374 0.12525,0.02433 c 0.427668,-0.216526 0.767008,-0.420824 1.017337,-0.613288 z" />
    <rect
       style="fill:none;fill-opacity:0.996078;stroke:none;stroke-width:0.172048;stroke-linecap:square;stroke-miterlimit:4.7;stroke-dasharray:none;stroke-opacity:1;paint-order:markers stroke fill"
       id="rect3"
       width="153.91408"
       height="31.828171"
       x="71.585915"
       y="77.646973" />
    <text
       xml:space="preserve"
       style="font-style:normal;font-variant:normal;font-weight:normal;font-stretch:normal;font-size:20.4795px;font-family:Papyrus;-inkscape-font-specification:'Papyrus, Normal';font-variant-ligatures:normal;font-variant-caps:normal;font-variant-numeric:normal;font-variant-east-asian:normal;text-align:start;writing-mode:lr-tb;direction:ltr;text-anchor:start;fill:#ffffff;fill-opacity:0.996078;stroke:#008080;stroke-width:0.150042;stroke-linecap:square;stroke-miterlimit:4.7;stroke-dasharray:none;stroke-opacity:1;paint-order:markers stroke fill"
       x="87.358772"
       y="121.2784"
       id="text3"
       transform="scale(1.2069509,0.82853411)"><tspan
         id="tspan3"
         style="fill:#ffffff;fill-opacity:0.996078;stroke:#008080;stroke-width:0.150042;stroke-dasharray:none;stroke-opacity:1"
         x="87.358772"
         y="121.2784">araman</tspan></text>
    <path
       style="fill:#ffffff;fill-opacity:0.996078;stroke:none;stroke-width:0.0566977;stroke-linecap:square;stroke-miterlimit:4.7;stroke-dasharray:none;stroke-opacity:1;paint-order:markers stroke fill"
       d="m 107.1998,102.76469 c 0.17207,0 0.51625,0.0279 0.51625,0 0,-0.0279 -0.68834,0 -0.51625,0 0.0284,0 1.06092,0.0163 1.2906,-0.0209 0.0304,-0.005 -0.0303,-0.0159 0,-0.0209 0.0922,-0.0149 0.51455,0.007 0.6453,0 0.45429,-0.0245 0.8029,-0.01 1.29061,-0.0209 0.31317,-0.007 0.6064,-0.0321 0.90343,-0.0417 0.76308,-0.0246 2.01399,0 2.83934,0 2.02195,0 4.04391,0 6.06585,0 0.64342,0 1.43851,0.0202 2.06498,0 0.89656,-0.029 1.79761,0.004 2.58121,-0.0209 1.79929,-0.0581 3.68164,-0.0417 5.54961,-0.0417 2.08686,0 4.24331,-0.0259 6.32399,0 1.08035,0.0135 2.15978,0.0171 3.22652,0.0417 0.59023,0.0136 1.21659,-0.0136 1.80684,0 0.13468,0.003 0.253,0.0173 0.38718,0.0209 0.71417,0.0193 1.47385,0.006 2.19403,0.0209 0.77275,0.0156 1.54766,0.0469 2.32309,0.0626 0.38421,0.008 0.77595,-0.006 1.16155,0 0.86217,0.0126 1.71484,0.0301 2.58124,0.0418 0.42105,0.006 0.87201,-0.01 1.2906,0 0.51648,0.0119 0.89009,0.0209 1.41966,0.0209 0.59157,0 1.35047,-0.019 1.93592,0 0.0943,0.003 0.1638,0.0178 0.25811,0.0209 0.37967,0.0123 0.77674,-0.007 1.16155,0 0.13521,0.002 0.25251,0.0177 0.38717,0.0209 0.50593,0.0117 1.04283,-0.0117 1.54873,0 0.99453,0.0229 1.97035,0.0424 2.96842,0.0626 0.69603,0.0141 1.36957,0.002 2.06496,0.0209 0.36977,0.01 0.79841,-0.0146 1.16155,0 1.20059,0.0485 2.60481,0.0209 3.87182,0.0209 0.37284,0 0.79602,-0.01 1.16155,0 0.33302,-0.0216 0.50756,0.0331 0.77436,0.0418 0.12657,0.004 0.25944,-0.003 0.38719,0 0.48112,0.0111 0.94537,0.0516 1.41966,0.0626 0.64711,0.0149 1.28385,0.0241 1.93592,0.0418 0.4027,0.0108 0.7766,0.047 1.16155,0.0626 0.25386,0.0103 0.52933,0.006 0.77434,0.0209 0.11391,0.007 0.1493,0.0329 0.25815,0.0417 0.23404,0.019 0.52273,0.009 0.77435,0.0209 0.42549,0.0196 0.62801,0.0616 1.03248,0.0834 0.0817,0.004 0.19729,-0.01 0.25812,0 0.0304,0.005 0,0.0139 0,0.0209"
       id="path3" />
  </g>
</svg>
