<?xml version="1.0" encoding="UTF-8" standalone="no"?>
<!-- Created with Inkscape (http://www.inkscape.org/) -->

<svg
   width="8.586071mm"
   height="8.1979895mm"
   viewBox="0 0 8.586071 8.1979895"
   version="1.1"
   id="svg1"
   xmlns="http://www.w3.org/2000/svg"
   xmlns:svg="http://www.w3.org/2000/svg">
  <defs
     id="defs1" />
  <g
     id="layer1"
     transform="translate(-144.20695,-51.224503)">
    <path
       id="rect1"
       style="fill:#008080;fill-opacity:0.996078;stroke:#000000;stroke-width:0.045;stroke-linecap:square;stroke-miterlimit:4.7;stroke-dasharray:none;stroke-opacity:1;paint-order:markers stroke fill"
       d="m 145.37201,51.247001 c -0.63296,0 -1.14257,0.509609 -1.14257,1.142566 v 5.867859 c 0,0.632957 0.50961,1.142566 1.14257,1.142566 h 6.25594 c 0.63296,0 1.14257,-0.509609 1.14257,-1.142566 v -5.867859 c 0,-0.632957 -0.50961,-1.142566 -1.14257,-1.142566 z m 0.38292,1.172022 0.0754,0.0124 c 0.014,0 0.0324,-0.001 0.0548,-0.0031 h 0.0248 c 0.0308,0 0.0577,0.0084 0.0801,0.0248 0.0224,0.02054 0.0336,0.03991 0.0336,0.05839 l -0.009,0.104904 v 0.153995 c -0.0252,0.104765 -0.0377,0.171746 -0.0377,0.200505 0,0.04108 0.009,0.10127 0.0253,0.181384 l -0.13023,0.120406 -0.11317,-0.0155 0.0165,0.0832 v 0.0956 l 0.0253,0.05529 h 0.0212 l 0.0796,-0.04289 c 0.0308,0.03081 0.046,0.05541 0.046,0.0739 0,0.0062 -0.003,0.0182 -0.008,0.03669 -0.008,0.01849 -0.0124,0.03418 -0.0124,0.04651 l 0.0124,0.619083 -0.008,0.129708 c -0.003,0.145848 -0.0113,0.222777 -0.0253,0.230994 l -0.10077,0.0677 c -0.014,0.01027 -0.0207,0.02492 -0.0207,0.04341 0,0.03081 0.0304,0.0664 0.092,0.107487 0.008,0.04314 0.0308,0.0918 0.0672,0.145211 l -0.0336,0.107487 0.0129,0.0987 -0.009,0.157096 c 0.0112,0.106819 0.0171,0.186886 0.0171,0.240295 l 0.0589,0.0217 v 0.05839 l 0.0289,0.0217 c 0.12869,-0.03903 0.20181,-0.06363 0.2186,-0.0739 0.16226,-0.08628 0.26715,-0.139655 0.3147,-0.160197 l 0.0207,0.0093 0.12609,-0.111105 0.62528,-0.480591 0.0589,-0.0987 0.43615,-0.409794 c 0.0448,-0.04314 0.0968,-0.08396 0.15555,-0.12299 0.042,-0.03287 0.11322,-0.09775 0.21394,-0.194303 l -0.0506,-0.05529 v -0.0031 c 0.0448,-0.0719 0.15552,-0.184933 0.33177,-0.338998 l 0.0713,-0.0155 c 0.008,-0.03903 0.0375,-0.08718 0.0878,-0.144694 l 0.0842,-0.104903 0.0713,-0.077 0.11317,-0.150895 c 0.0811,-0.05957 0.15106,-0.126553 0.2098,-0.200504 0.0616,-0.07601 0.10906,-0.13357 0.14263,-0.1726 0.0755,-0.0082 0.12171,-0.01712 0.13849,-0.02739 l 0.0925,-0.05271 c 0.0811,-0.04314 0.12596,-0.06669 0.13435,-0.0708 0.006,-0.0041 0.0267,-0.0072 0.0631,-0.0093 0.028,0 0.0656,-0.01413 0.11317,-0.04289 0.0588,-0.03492 0.10893,-0.05271 0.1509,-0.05271 l 0.0336,0.04341 v 0.0031 c 0,0.01233 -0.0291,0.04896 -0.0879,0.110587 -0.056,0.08422 -0.0856,0.1287 -0.0884,0.132809 l -0.13436,0.0832 c -0.12309,0.115035 -0.19436,0.184639 -0.21394,0.209289 -0.0392,0.05957 -0.0768,0.106143 -0.11317,0.13901 l -0.25632,-0.0186 -0.0124,0.135393 0.0713,0.0217 c 0,0.05136 -0.0165,0.09322 -0.0501,0.12609 -0.0252,0.0267 -0.0687,0.06177 -0.13023,0.104903 -0.008,0.02876 -0.0236,0.05022 -0.046,0.0646 l -0.0925,0.0739 -0.13436,0.07441 c -0.0364,0.07395 -0.0575,0.114773 -0.063,0.12299 -0.006,0.0062 -0.032,0.02081 -0.0796,0.04341 0,0.03903 -0.006,0.06467 -0.017,0.077 -0.0112,0.01643 -0.0555,0.04784 -0.13384,0.09508 -0.13988,0.10271 -0.29681,0.242434 -0.47026,0.419096 l -0.22634,0.181901 c -0.1175,0.115035 -0.20316,0.191964 -0.25631,0.230993 l -0.0295,0.0863 c -0.0671,0.02876 -0.10745,0.04969 -0.12144,0.06201 -0.014,0.01027 -0.0602,0.06365 -0.13849,0.160197 -0.0783,0.03697 -0.12317,0.05948 -0.13436,0.0677 -0.0112,0.0082 -0.0264,0.03491 -0.046,0.0801 l -0.11317,0.0093 c -0.028,0.0267 -0.0464,0.04398 -0.0548,0.05219 -0.042,0.03492 -0.063,0.05638 -0.063,0.0646 0,0.0021 0.001,0.0052 0.004,0.0093 l 0.004,0.0124 0.39894,0.3514 c 0.0867,0.07395 0.13023,0.140416 0.13023,0.199988 0,0.01233 -0.002,0.02802 -0.005,0.04651 0.0615,0 0.10638,0.0021 0.13436,0.0062 0.0308,0.0062 0.0801,0.03495 0.14727,0.0863 0.0671,0.04725 0.11466,0.09121 0.14263,0.132292 0.0364,0.0021 0.0681,0.01042 0.0961,0.0248 0.10631,0.05752 0.15968,0.105665 0.15968,0.144694 0,0.02054 -0.0125,0.04619 -0.0377,0.077 0.042,0.02876 0.10469,0.05963 0.18861,0.0925 l 0.12196,0.0615 0.0966,0.0186 c 0.008,-0.0082 0.0402,0.01324 0.0961,0.06459 h 0.0884 c 0.0839,0.06984 0.20537,0.147818 0.36484,0.234094 l 0.52916,0.277503 0.13385,0.05529 c -0.003,0.01849 -0.004,0.03523 -0.004,0.04961 0,0.03492 0.0224,0.05533 0.0672,0.0615 0.0476,0.0062 0.0852,0.01349 0.11317,0.0217 v 0.05529 c 0.014,0.0082 0.0535,0.01763 0.11782,0.02791 0.0588,0.01643 0.13002,0.03057 0.21394,0.04289 0.0727,0.01233 0.13732,0.03797 0.19327,0.077 0.31054,0.137632 0.46962,0.209845 0.47801,0.216008 0.0196,0.01233 0.0353,0.0432 0.0465,0.0925 0.0811,0.01438 0.15239,0.03479 0.21394,0.0615 l 0.0879,-0.05529 c 0.0671,0.0226 0.15681,0.04196 0.26872,0.05839 0.1119,0.01643 0.20692,0.02481 0.28525,0.02481 h 0.0171 l 0.29352,-0.03101 c 0.006,0 0.0181,0.0084 0.0377,0.02481 l 0.0129,0.02429 c 0.0168,0.09449 -0.11371,0.163567 -0.39067,0.206705 l -0.0672,0.0646 c -0.0811,0.0041 -0.13399,0.01039 -0.15917,0.0186 -0.008,0.0021 -0.0519,0.02037 -0.13022,0.05529 l -0.0925,-0.0093 c -0.0783,-0.0062 -0.12265,-0.01035 -0.13384,-0.0124 -0.008,-0.0021 -0.0308,-0.01305 -0.0672,-0.03359 l -0.15141,0.0155 c -0.0811,-0.0493 -0.14119,-0.08331 -0.18036,-0.101802 -0.0252,-0.01438 -0.0991,-0.04316 -0.2222,-0.0863 -0.0727,-0.03081 -0.1328,-0.05122 -0.18036,-0.0615 -0.0364,-0.0062 -0.0951,-0.02709 -0.17621,-0.06201 -0.0923,-0.04108 -0.14703,-0.06254 -0.16382,-0.0646 -0.0783,-0.0267 -0.12316,-0.04502 -0.13435,-0.05529 l -0.0925,-0.0739 -0.0672,-0.02481 c -0.0588,-0.04314 -0.11428,-0.07401 -0.16744,-0.0925 0.008,-0.02876 0.0124,-0.05335 0.0124,-0.0739 0,-0.01438 -0.006,-0.02694 -0.0171,-0.03721 -0.0364,-0.03081 -0.0879,-0.04599 -0.15503,-0.04599 -0.014,0 -0.0727,0.01256 -0.17621,0.03721 -0.006,0.0021 -0.01,0.0031 -0.0124,0.0031 -0.0531,0 -0.10118,-0.02669 -0.14314,-0.0801 -0.008,-0.01233 -0.0223,-0.05052 -0.0419,-0.114205 -0.006,-0.02054 -0.0235,-0.03886 -0.0543,-0.05529 -0.0224,-0.01233 -0.0408,-0.0186 -0.0548,-0.0186 l -0.10491,0.0124 h -0.0165 c -0.0448,0 -0.14297,-0.04134 -0.29404,-0.123506 -0.0476,-0.0267 -0.16901,-0.09422 -0.36484,-0.203089 l -0.19327,-0.148311 c -0.0476,-0.03492 -0.074,-0.05533 -0.0796,-0.0615 -0.0252,-0.0226 -0.066,-0.04196 -0.12196,-0.05839 -0.1063,-0.05341 -0.23629,-0.114113 -0.39015,-0.181901 0.0168,-0.05136 0.0365,-0.09741 0.0589,-0.138493 -0.11191,-0.03492 -0.17916,-0.05271 -0.20154,-0.05271 -0.0168,0 -0.0379,10e-4 -0.0631,0.0031 -0.042,-0.02876 -0.0993,-0.06435 -0.17208,-0.107487 l -0.17622,-0.14521 c -0.0587,-0.04314 -0.0937,-0.07087 -0.1049,-0.0832 -0.0168,-0.02054 -0.036,-0.05404 -0.0584,-0.101286 -0.0616,0 -0.10639,-0.0042 -0.13436,-0.0124 -0.0336,-0.01027 -0.1035,-0.05475 -0.20981,-0.132808 -0.0392,-0.0267 -0.084,-0.03979 -0.13436,-0.03979 -0.0392,0 -0.0728,0.0094 -0.10077,0.0279 -0.0252,0.01849 -0.0377,0.04099 -0.0377,0.0677 v 0.02119 l 0.10077,-0.0057 v 0.0584 c 0,0.01849 -0.006,0.05512 -0.0171,0.110587 -0.003,0.01643 -0.004,0.03318 -0.004,0.04961 0,0.01438 0.009,0.08084 0.0253,0.199988 v 0.114204 l 0.004,0.0987 c 0,0.01643 -0.009,0.03057 -0.0253,0.04289 -0.028,0.02054 -0.0432,0.03624 -0.046,0.04651 -0.008,0.02465 -0.0209,0.05448 -0.0377,0.0894 0.0588,0.0041 0.1004,0.01615 0.12557,0.03669 -0.028,0.08422 -0.0419,0.234411 -0.0419,0.450102 -0.003,0.03903 -0.0194,0.05839 -0.0501,0.05839 -0.028,0 -0.0616,-0.01518 -0.10077,-0.04599 h -0.0377 c -0.014,0.01027 -0.0212,0.02022 -0.0212,0.03049 0,0.07601 0.0659,0.115252 0.1974,0.117306 0.0112,0.0226 0.0184,0.07493 0.0212,0.157096 l 0.004,0.05529 c -0.003,0.0226 -0.0225,0.05347 -0.0589,0.0925 l -0.0837,0.03721 0.0377,0.0832 c 0.042,-0.02876 0.0737,-0.04341 0.0961,-0.04341 0.0308,0 0.0465,0.04866 0.0465,0.14521 -0.003,0.01643 0.003,0.03998 0.0165,0.0708 0.0112,0.03081 0.0171,0.05436 0.0171,0.0708 0,0.0041 -0.001,0.01196 -0.004,0.02429 -0.0783,0.03287 -0.12904,0.07002 -0.15142,0.111104 -0.0923,0 -0.16625,0.01937 -0.22221,0.0584 l 0.0165,0.04031 c -0.1119,0.0267 -0.19304,0.05339 -0.2434,0.0801 -0.0867,0.05136 -0.14225,0.077 -0.16743,0.077 -0.0308,0 -0.0689,-0.0063 -0.11368,-0.0186 0.0168,-0.05546 0.0253,-0.0921 0.0253,-0.110588 v -0.0093 -0.03101 l -0.004,-0.0186 0.4408,-0.184485 -0.40721,-0.163297 0.0377,-0.0217 c 0.0559,-0.03287 0.0824,-0.06479 0.0796,-0.0956 l -0.0124,-0.126607 0.34829,-0.132292 -0.31471,-0.12609 0.0124,-0.114205 -0.004,-0.295589 0.008,-0.07131 c -0.0336,-0.05546 -0.0501,-0.08791 -0.0501,-0.09819 0,-0.01438 0.003,-0.03112 0.008,-0.04961 0.042,-0.115036 0.0631,-0.178361 0.0631,-0.190686 l 0.0253,-0.468705 0.22634,-0.181902 c -0.1147,-0.04725 -0.19717,-0.09121 -0.24753,-0.132291 l 0.0295,-0.0217 h 0.0336 l 0.0294,0.0217 h 0.0165 v -0.02481 c 0.0448,-0.03287 0.0712,-0.06741 0.0796,-0.104386 l -0.13384,0.01188 c -0.028,-0.158173 -0.0424,-0.284295 -0.0424,-0.378788 l 0.0212,-0.169499 v -0.0031 l -0.008,-0.113688 0.0124,-0.05271 c 0,-0.09449 0.007,-0.149965 0.0212,-0.166398 0.0252,-0.0267 0.0377,-0.05235 0.0377,-0.077 l -0.12609,-0.04599 c 0.0224,-0.03903 0.0349,-0.09555 0.0377,-0.169499 l 0.004,-0.0863 -0.0124,-0.0987 c 0,-0.115035 -0.003,-0.187778 -0.008,-0.218591 -0.0112,-0.03287 -0.0336,-0.06793 -0.0672,-0.104903 0.0196,-0.03492 0.0321,-0.05847 0.0377,-0.0708 0.0112,-0.02465 0.0251,-0.04558 0.0419,-0.06201 -0.0168,-0.02465 -0.0253,-0.05291 -0.0253,-0.08578 0.0308,-0.01849 0.0644,-0.03104 0.10076,-0.03721 v -0.132292 c -0.0392,0.0267 -0.0755,0.04084 -0.10903,0.04289 -0.0112,-0.03081 -0.0197,-0.09779 -0.0253,-0.200504 -0.0112,-0.137632 -0.0251,-0.245435 -0.0419,-0.323495 0.0364,-0.0267 0.0601,-0.05444 0.0713,-0.0832 -0.0755,-0.0493 -0.11317,-0.09849 -0.11317,-0.147794 0,-0.0267 0.007,-0.06648 0.0212,-0.11989 -0.15107,-0.01027 -0.22954,-0.03591 -0.23513,-0.077 l -0.004,-0.0186 0.42788,-0.219108 0.0336,0.0062 c 0.1147,-0.05546 0.20571,-0.107796 0.27285,-0.157096 z" />
  </g>
</svg>
